<svg xmlns="http://www.w3.org/2000/svg" version="1.1" xmlns:xlink="http://www.w3.org/1999/xlink" xmlns:svgjs="http://svgjs.com/svgjs" width="1440" height="560" preserveAspectRatio="none" viewBox="0 0 1440 560">
    <g mask="url(&quot;#SvgjsMask1000&quot;)" fill="none">
        <rect width="1440" height="560" x="0" y="0" fill="#0e2a47"></rect>
        <path d="M1147.97 152.86L1187.26 152.86L1187.26 192.15L1147.97 192.15z" stroke="#e73635"></path>
        <path d="M423.61 515.7a52.47 52.47 0 1 0 79.56 68.43z" stroke="#e73635"></path>
        <path d="M1051.46 126.54 a5.39 5.39 0 1 0 10.78 0 a5.39 5.39 0 1 0 -10.78 0z" stroke="#037b0b"></path>
        <path d="M557.79 13.71L611.62 13.71L611.62 48.08L557.79 48.08z" fill="#037b0b"></path>
        <path d="M488.23 262.26a10.02 10.02 0 1 0-19.91 2.3z" fill="#037b0b"></path>
        <path d="M1119.66 361.29L1143.44 361.29L1143.44 379.45L1119.66 379.45z" fill="#e73635"></path>
        <path d="M642.87 444.31L645.79 444.31L645.79 447.23L642.87 447.23z" stroke="#d3b714"></path>
        <path d="M1130.15 340.77L1172.97 340.77L1172.97 381.05L1130.15 381.05z" fill="#e73635"></path>
        <path d="M1171.16 300.53L1226.67 300.53L1226.67 356.04L1171.16 356.04z" fill="#e73635"></path>
        <path d="M1244.32 484.81L1285.6 484.81L1285.6 526.09L1244.32 526.09z" fill="#037b0b"></path>
        <path d="M1237.17 557.98 a26.85 26.85 0 1 0 53.7 0 a26.85 26.85 0 1 0 -53.7 0z" stroke="#e73635"></path>
        <path d="M1284.59 149.46a12.09 12.09 0 1 0 24.16 0.78z" stroke="#e73635"></path>
        <path d="M217.27 7.08L234.32 7.08L234.32 24.13L217.27 24.13z" fill="#e73635"></path>
        <path d="M564.45 115.43 a17.09 17.09 0 1 0 34.18 0 a17.09 17.09 0 1 0 -34.18 0z" stroke="#e73635"></path>
        <path d="M395.89 243.25 a47.34 47.34 0 1 0 94.68 0 a47.34 47.34 0 1 0 -94.68 0z" fill="#037b0b"></path>
        <path d="M345.34 424.4L384.98 424.4L384.98 464.04L345.34 464.04z" fill="#037b0b"></path>
        <path d="M424.38 43.04L458.67 43.04L458.67 77.33L424.38 77.33z" stroke="#d3b714"></path>
        <path d="M440.07-3.1a54.86 54.86 0 1 0-21.02 107.68z" fill="#e73635"></path>
        <path d="M1368.77 365.79a39.4 39.4 0 1 0 9.55-78.21z" stroke="#037b0b"></path>
        <path d="M191.88 539.07L204.16 539.07L204.16 551.35L191.88 551.35z" fill="#e73635"></path>
        <path d="M14.67 216.64L32.21 216.64L32.21 259.5L14.67 259.5z" stroke="#e73635"></path>
        <path d="M1385.61 396.07a0.24 0.24 0 1 0 0.44 0.2z" fill="#e73635"></path>
        <path d="M353.24 228.98L365.88 228.98L365.88 241.62L353.24 241.62z" stroke="#037b0b"></path>
        <path d="M902.94 468.58L958.37 468.58L958.37 480.56L902.94 480.56z" fill="#e73635"></path>
        <path d="M820.94 14.83 a16.87 16.87 0 1 0 33.74 0 a16.87 16.87 0 1 0 -33.74 0z" fill="#d3b714"></path>
        <path d="M1061.04 80.97L1113.44 80.97L1113.44 133.37L1061.04 133.37z" stroke="#037b0b"></path>
        <path d="M1357.76 420.19a54.01 54.01 0 1 0-107.8 6.81z" stroke="#037b0b"></path>
        <path d="M714.35 193.46L756.62 193.46L756.62 212.89L714.35 212.89z" fill="#037b0b"></path>
        <path d="M1232.27 61.41a5.31 5.31 0 1 0 10.58-1.02z" stroke="#e73635"></path>
        <path d="M87.64 3.69L99.26 3.69L99.26 41.16L87.64 41.16z" fill="#037b0b"></path>
        <path d="M329.08 300.96L378.82 300.96L378.82 327.1L329.08 327.1z" fill="#e73635"></path>
        <path d="M521.89 205.38L538.59 205.38L538.59 222.08L521.89 222.08z" fill="#037b0b"></path>
        <path d="M1265.73 536.67 a41.54 41.54 0 1 0 83.08 0 a41.54 41.54 0 1 0 -83.08 0z" stroke="#037b0b"></path>
    </g>
    <defs>
        <mask id="SvgjsMask1000">
            <rect width="1440" height="560" fill="#ffffff"></rect>
        </mask>
    </defs>
</svg>