<?xml version="1.0" ?><svg style="enable-background:new 0 0 44 44;" version="1.1" viewBox="0 0 44 44" xml:space="preserve" xmlns="http://www.w3.org/2000/svg" xmlns:xlink="http://www.w3.org/1999/xlink"><g id="ghost"><g><g><circle cx="18" cy="13" r="2"/></g><g><circle cx="26" cy="13" r="2"/></g><g><path d="M22,37c-0.552,0-1,0.448-1,1v5c0,0.552,0.448,1,1,1s1-0.448,1-1v-5C23,37.448,22.552,37,22,37z"/><path d="M27,35c-0.552,0-1,0.448-1,1v5c0,0.552,0.448,1,1,1s1-0.448,1-1v-5C28,35.448,27.552,35,27,35z"/><path d="M17,35c-0.552,0-1,0.448-1,1v5c0,0.552,0.448,1,1,1s1-0.448,1-1v-5C18,35.448,17.552,35,17,35z"/></g><path d="M22,17c-1.105,0-2,0.895-2,2v2c0,1.105,0.895,2,2,2s2-0.895,2-2v-2C24,17.895,23.105,17,22,17z M22,22    c-0.462,0-0.835-0.322-0.949-0.749C21.333,21.095,21.654,21,22,21s0.667,0.095,0.949,0.251C22.835,21.678,22.462,22,22,22z"/><g><g><path d="M32.401,33.999c-1.203,0-2.385-0.438-3.279-1.264c-1.06-0.979-2.784-0.979-3.843,0c-1.809,1.67-4.749,1.67-6.558,0      c-1.058-0.978-2.783-0.979-3.842,0c-1.341,1.237-3.327,1.603-5.06,0.932C8.731,33.245,8,32.136,8,30.907V14.392      c0-3.691,1.493-7.363,4.095-10.074C14.768,1.533,18.283,0,21.992,0C21.995,0,21.998,0,22,0c3.733,0.002,7.245,1.459,9.889,4.103      C34.54,6.754,36,10.269,36,14v16.907c0,1.229-0.731,2.337-1.819,2.759C33.604,33.89,33,33.999,32.401,33.999z M27.2,29.992      c1.18,0,2.359,0.425,3.279,1.274c0.783,0.724,1.954,0.933,2.979,0.536C33.777,31.678,34,31.31,34,30.907V14      c0-3.197-1.252-6.209-3.525-8.483C28.208,3.251,25.199,2.002,22,2c-0.002,0-0.005,0-0.007,0c-3.161,0-6.163,1.315-8.455,3.703      C11.29,8.045,10,11.212,10,14.392v16.516c0,0.403,0.223,0.771,0.542,0.894c1.026,0.398,2.196,0.189,2.98-0.536      c1.839-1.698,4.719-1.697,6.557,0c1.06,0.979,2.783,0.979,3.843,0C24.841,30.417,26.021,29.992,27.2,29.992z"/></g></g></g></g><g id="bat"/><g id="monster"/><g id="jason"/><g id="grave"/><g id="skull"/><g id="cauldron"/><g id="cleaver"/><g id="candle"/><g id="cat"/><g id="owl"/><g id="pumkin"/><g id="eye"/><g id="vampire"/><g id="finger"/><g id="leaf"/><g id="coffin"/><g id="broom"/><g id="moon"/><g id="poison"/><g id="sweet"/><g id="zombie"/><g id="hat"/><g id="candy"/></svg>