<?xml version="1.0" ?><svg style="enable-background:new 0 0 24 24;" version="1.1" viewBox="0 0 24 24" xml:space="preserve" xmlns="http://www.w3.org/2000/svg" xmlns:xlink="http://www.w3.org/1999/xlink"><style type="text/css">
	.st0{display:none;}
	.st1{display:inline;}
	.st2{opacity:0.2;fill:none;stroke:#000000;stroke-width:5.000000e-02;stroke-miterlimit:10;}
</style><g class="st0" id="grid_system"/><g id="_icons"><g><path d="M17.7,4.3C16.1,2.8,14.1,2,12,2c-4.4,0-8,3.6-8,8v11c0,0.6,0.4,1,1,1c1.3,0,2-0.8,2.5-1.3c0.4-0.5,0.6-0.7,1-0.7    c0.4,0,0.6,0.2,1,0.7C10,21.2,10.7,22,12,22c1.3,0,2-0.8,2.5-1.3c0.4-0.5,0.6-0.7,1-0.7c0.4,0,0.6,0.2,1,0.7    C17,21.2,17.7,22,19,22c0.6,0,1-0.4,1-1V10C20,7.9,19.2,5.9,17.7,4.3z M18,19.3c-0.2-0.2-0.4-0.4-0.6-0.6c0,0,0,0-0.1-0.1    c-0.1,0-0.1-0.1-0.2-0.1c0,0-0.1,0-0.1-0.1c-0.1,0-0.1-0.1-0.2-0.1c0,0-0.1-0.1-0.1-0.1c-0.1,0-0.1-0.1-0.2-0.1    c-0.1,0-0.1,0-0.2-0.1c-0.1,0-0.1,0-0.2-0.1c-0.1,0-0.1,0-0.2,0c-0.1,0-0.3,0-0.5,0c-1.3,0-2,0.8-2.5,1.3c-0.4,0.5-0.6,0.7-1,0.7    c-0.4,0-0.6-0.2-1-0.7C10.5,18.8,9.8,18,8.5,18c-1.3,0-2,0.8-2.5,1.3V10c0-3.3,2.7-6,6-6c1.6,0,3.1,0.6,4.2,1.8    C17.4,6.9,18,8.4,18,10V19.3z"/><circle cx="11" cy="10" r="1"/><circle cx="16" cy="10" r="1"/></g></g></svg>