<?xml version="1.0" ?><svg id="Icons" viewBox="0 0 24 24" xmlns="http://www.w3.org/2000/svg"><title/><path d="M20.512,20.965h0A8.969,8.969,0,0,1,19,15.972V9.293A8.213,8.213,0,0,0,11.246,1,8,8,0,0,0,3,9v3A11.013,11.013,0,0,0,14,23h6a1,1,0,0,0,.833-1.554ZM14,21a9.011,9.011,0,0,1-9-9V9a6,6,0,0,1,6-6l.187,0A6.2,6.2,0,0,1,17,9.293v6.679A10.954,10.954,0,0,0,18.216,21Z"/><path d="M9,9A1,1,0,0,0,7,9v2a1,1,0,0,0,2,0Z"/><path d="M14,8a1,1,0,0,0-1,1v2a1,1,0,0,0,2,0V9A1,1,0,0,0,14,8Z"/><path d="M12,13H10a1,1,0,0,0,0,2h2a1,1,0,0,0,0-2Z"/></svg>